<svg width="40" height="40" viewBox="0 0 40 40" fill="none" xmlns="http://www.w3.org/2000/svg">
<path d="M37.9249 18.4L32.4999 12.3C32.2052 11.9681 31.8432 11.7029 31.438 11.5218C31.0328 11.3408 30.5937 11.2481 30.1499 11.25H25.1499V6.875C25.1499 6.05051 24.8241 5.25942 24.2435 4.67408C23.6628 4.08875 22.8744 3.7566 22.0499 3.75H4.3999C3.5711 3.75 2.77624 4.07924 2.19019 4.66529C1.60414 5.25134 1.2749 6.0462 1.2749 6.875V28.125C1.2749 28.9538 1.60414 29.7487 2.19019 30.3347C2.77624 30.9208 3.5711 31.25 4.3999 31.25H5.2249C5.2706 32.6183 5.85663 33.9127 6.85468 34.8499C7.85272 35.787 9.18145 36.2904 10.5499 36.25C11.9208 36.2906 13.2522 35.7879 14.2542 34.8514C15.2563 33.9149 15.8478 32.6205 15.8999 31.25H24.9999C25.0456 32.6183 25.6316 33.9127 26.6297 34.8499C27.6277 35.787 28.9564 36.2904 30.3249 36.25C31.6958 36.2906 33.0272 35.7879 34.0292 34.8514C35.0313 33.9149 35.6228 32.6205 35.6749 31.25C36.4798 31.2116 37.2393 30.8663 37.7973 30.285C38.3554 29.7038 38.6694 28.9308 38.6749 28.125V20.475C38.6926 19.714 38.4251 18.9738 37.9249 18.4ZM10.5499 33.125C10.0099 33.1665 9.4754 32.9926 9.06319 32.6412C8.65098 32.2899 8.39455 31.7898 8.3499 31.25C8.39455 30.7102 8.65098 30.2101 9.06319 29.8588C9.4754 29.5074 10.0099 29.3335 10.5499 29.375C11.0926 29.3333 11.6299 29.5064 12.0461 29.8572C12.4623 30.2079 12.724 30.7081 12.7749 31.25C12.724 31.7919 12.4623 32.2921 12.0461 32.6428C11.6299 32.9936 11.0926 33.1667 10.5499 33.125ZM22.0499 14.175V28.125H14.7249C14.2076 27.5271 13.566 27.0496 12.8448 26.7257C12.1236 26.4018 11.3404 26.2395 10.5499 26.25C9.76361 26.2431 8.98522 26.4072 8.26864 26.731C7.55206 27.0547 6.91442 27.5304 6.3999 28.125H4.3999V6.875H22.0499V14.175ZM25.1749 14.375H30.1749L33.7749 18.45H25.1749V14.375ZM30.3749 33.125C29.8349 33.1665 29.3004 32.9926 28.8882 32.6412C28.476 32.2899 28.2195 31.7898 28.1749 31.25C28.2195 30.7102 28.476 30.2101 28.8882 29.8588C29.3004 29.5074 29.8349 29.3335 30.3749 29.375C30.9176 29.3333 31.4549 29.5064 31.8711 29.8572C32.2873 30.2079 32.549 30.7081 32.5999 31.25C32.549 31.7919 32.2873 32.2921 31.8711 32.6428C31.4549 32.9936 30.9176 33.1667 30.3749 33.125ZM30.3749 26.25C29.5886 26.2431 28.8102 26.4072 28.0936 26.731C27.3771 27.0547 26.7394 27.5304 26.2249 28.125H25.1749V21.55H35.5999V28.125H34.5499C34.0326 27.5271 33.391 27.0496 32.6698 26.7257C31.9486 26.4018 31.1654 26.2395 30.3749 26.25Z" fill="#626584"/>
</svg>
