<svg width="40" height="40" viewBox="0 0 40 40" fill="none" xmlns="http://www.w3.org/2000/svg">
<g clip-path="url(#clip0_2009_635)">
<path d="M37.1881 16.3909C39.1644 14.4158 40.0983 11.7926 39.9921 9.20466L38.7043 7.91685L34.2158 12.4054L28.9936 11.0065L27.5947 5.78552L32.0832 1.29701L30.7954 0.00794575C28.2075 -0.0982261 25.5842 0.835602 23.6091 2.81193C21.1299 5.29115 20.2901 8.78849 21.0896 11.9575L6.14561 26.9011C4.60631 26.9976 3.09631 27.6323 1.92076 28.8079C-0.640254 31.3689 -0.640254 35.5193 1.92076 38.0804C4.48061 40.6402 8.63217 40.6402 11.192 38.0804C12.3676 36.9048 13.0023 35.3936 13.0987 33.8555L28.0426 18.9117C31.2115 19.71 34.7088 18.8701 37.1881 16.3909ZM20.6451 17.1733C21.2469 16.5703 22.2247 16.5703 22.8265 17.1733C23.4295 17.7751 23.4295 18.7529 22.8265 19.356L15.014 27.1685C14.4109 27.7715 13.4344 27.7715 12.8313 27.1685C12.2295 26.5654 12.2295 25.5889 12.8313 24.9858L20.6451 17.1733ZM7.24662 36.5765L4.23146 35.7683L3.42334 32.7532L5.63037 30.5461L8.6467 31.353L9.45482 34.3694L7.24662 36.5765Z" fill="#626584"/>
</g>
<defs>
<clipPath id="clip0_2009_635">
<rect width="40" height="40" fill="white"/>
</clipPath>
</defs>
</svg>
