<svg width="40" height="40" viewBox="0 0 40 40" fill="none" xmlns="http://www.w3.org/2000/svg">
<path d="M15 27.5C13.8333 27.5 12.8472 27.0972 12.0417 26.2916C11.2361 25.4861 10.8333 24.5 10.8333 23.3333C10.8333 22.1666 11.2361 21.1805 12.0417 20.375C12.8472 19.5694 13.8333 19.1666 15 19.1666C16.1667 19.1666 17.1528 19.5694 17.9583 20.375C18.7639 21.1805 19.1667 22.1666 19.1667 23.3333C19.1667 24.5 18.7639 25.4861 17.9583 26.2916C17.1528 27.0972 16.1667 27.5 15 27.5ZM8.33333 36.6666C7.41667 36.6666 6.63194 36.3403 5.97917 35.6875C5.32639 35.0347 5 34.25 5 33.3333V9.99998C5 9.08331 5.32639 8.29859 5.97917 7.64581C6.63194 6.99304 7.41667 6.66665 8.33333 6.66665H10V3.33331H13.3333V6.66665H26.6667V3.33331H30V6.66665H31.6667C32.5833 6.66665 33.3681 6.99304 34.0208 7.64581C34.6736 8.29859 35 9.08331 35 9.99998V33.3333C35 34.25 34.6736 35.0347 34.0208 35.6875C33.3681 36.3403 32.5833 36.6666 31.6667 36.6666H8.33333ZM8.33333 33.3333H31.6667V16.6666H8.33333V33.3333Z" fill="#626584"/>
</svg>
